<svg width="32" height="32" viewBox="0 0 32 32" fill="none" xmlns="http://www.w3.org/2000/svg">
  <defs>
    <linearGradient id="pathGradient" x1="0%" y1="0%" x2="100%" y2="100%">
      <stop offset="0%" style="stop-color:#7B87F4;stop-opacity:1" />
      <stop offset="100%" style="stop-color:#5E6AD2;stop-opacity:1" />
    </linearGradient>
  </defs>

  <!-- Simplified maze design for favicon -->
  <rect width="32" height="32" fill="#000000"/>

  <!-- Outer ring -->
  <circle cx="16" cy="16" r="14" stroke="#2A2A2A" stroke-width="1.5" fill="none"/>

  <!-- Middle rings -->
  <circle cx="16" cy="16" r="10" stroke="#2A2A2A" stroke-width="1.5" fill="none"/>
  <circle cx="16" cy="16" r="6" stroke="#2A2A2A" stroke-width="1.5" fill="none"/>

  <!-- Maze segments -->
  <path d="M 16 2 L 16 6" stroke="#2A2A2A" stroke-width="1.5"/>
  <path d="M 16 22 L 16 26" stroke="#2A2A2A" stroke-width="1.5"/>
  <path d="M 30 16 L 26 16" stroke="#2A2A2A" stroke-width="1.5"/>
  <path d="M 6 16 L 2 16" stroke="#2A2A2A" stroke-width="1.5"/>

  <path d="M 23 8 L 20 11" stroke="#2A2A2A" stroke-width="1.5"/>
  <path d="M 9 23 L 12 20" stroke="#2A2A2A" stroke-width="1.5"/>
  <path d="M 23 23 L 20 20" stroke="#2A2A2A" stroke-width="1.5"/>
  <path d="M 9 9 L 12 12" stroke="#2A2A2A" stroke-width="1.5"/>

  <!-- Solution path - simplified purple gradient -->
  <path d="M 16 2 L 16 6 L 20 10 L 20 14 L 16 18 L 12 16 L 12 12 L 16 12"
        stroke="url(#pathGradient)"
        stroke-width="2.5"
        stroke-linecap="round"
        fill="none"/>

  <!-- Center dot -->
  <circle cx="16" cy="16" r="2.5" fill="url(#pathGradient)"/>
  <circle cx="16" cy="16" r="1" fill="#FFFFFF"/>
</svg>
